<?xml version="1.0" encoding="utf-8"?>
<!-- Generator: Adobe Illustrator 22.0.1, SVG Export Plug-In . SVG Version: 6.00 Build 0)  -->
<svg version="1.1" id="Layer_1" xmlns="http://www.w3.org/2000/svg" xmlns:xlink="http://www.w3.org/1999/xlink" x="0px" y="0px"
	 viewBox="0 0 199 45" style="enable-background:new 0 0 199 45;" xml:space="preserve" width="199px" height="45px">
<style type="text/css">
	.st0{fill:#E2231A;}
</style>
<g>
	<g>
		<path class="st0" d="M62.9,16H52.5l-2.4,4.5c-0.3,0.7-0.9,1.5-0.9,1.5h-0.1c0,0-0.5-0.8-0.9-1.5L45.9,16H35.5l8.2,12.8l-8.1,12.9
			h10.2l2.8-5.3c0.3-0.5,0.7-1.4,0.7-1.4h0.1c0,0,0.4,0.9,0.7,1.4l2.8,5.3h10.2L55,28.8L62.9,16z"/>
		<path class="st0" d="M27.7,22.5c0.4-0.5,4.2-5.2,4.2-9.8c0-8-6.5-12.4-14.5-12.4C7.4,0.4,3,6.5,3,12.7c0,3.7,1.6,6.2,3.9,8.2
			C5.6,21.9,1,25.8,1,31.4c0,6.8,5.5,13.3,15.9,13.3c10.6,0,15.9-6.5,15.9-13.1C32.8,27.3,30.6,24.5,27.7,22.5z M17.2,9.6
			c2.8,0,4.5,1.6,4.5,4c0,2.6-1.1,4.6-1.5,5.3c-3.8-1.6-6.9-3.1-6.9-5.9C13.3,11.1,14.5,9.6,17.2,9.6z M16.9,35.4
			c-2.9,0-5.2-2.2-5.2-5c0-2.3,1.3-4.1,2.3-5.2c4.2,1.9,8,3.4,8,5.8C22,33.9,20.1,35.4,16.9,35.4z"/>
		<path class="st0" d="M92.2,22.5c0.4-0.5,4.2-5.2,4.2-9.8c0-8-6.5-12.4-14.5-12.4c-10,0-14.4,6.1-14.4,12.3c0,3.7,1.6,6.2,3.9,8.2
			c-1.3,1-5.9,4.9-5.9,10.4c0,6.8,5.5,13.3,15.9,13.3c10.6,0,15.9-6.5,15.9-13.1C97.3,27.3,95.1,24.5,92.2,22.5z M81.7,9.6
			c2.8,0,4.5,1.6,4.5,4c0,2.6-1.1,4.6-1.5,5.3c-3.8-1.6-6.9-3.1-6.9-5.9C77.8,11.1,79,9.6,81.7,9.6z M81.4,35.4
			c-2.9,0-5.2-2.2-5.2-5c0-2.3,1.3-4.1,2.3-5.2c4.2,1.9,8,3.4,8,5.8C86.5,33.9,84.6,35.4,81.4,35.4z"/>
	</g>
</g>
</svg>
